<?xml version="1.0" encoding="UTF-8"?>
<svg width="132px" height="132px" viewBox="0 0 132 132" version="1.1" xmlns="http://www.w3.org/2000/svg" xmlns:xlink="http://www.w3.org/1999/xlink">
    <title>Ico_2</title>
    <defs>
        <polygon id="path-1" points="0 131.701 131.701 131.701 131.701 0 0 0"></polygon>
    </defs>
    <g id="Page-1" stroke="none" stroke-width="1" fill="none" fill-rule="evenodd">
        <g id="Landing_Customer_VBerlin" transform="translate(-567.000000, -721.000000)">
            <g id="Group-26" transform="translate(567.000000, 721.000000)">
                <path d="M26.756,79.9595 L19.686,79.9595 C18.942,79.2155 18.524,78.7985 17.78,78.0535 L17.78,59.9895 C18.524,59.2455 18.942,58.8285 19.686,58.0845 L26.756,58.0845 C27.5,58.8285 27.918,59.2455 28.662,59.9895 L28.662,78.0535 C27.918,78.7985 27.5,79.2155 26.756,79.9595" id="Fill-1" fill="#002F35"></path>
                <path d="M92.26,79.9595 L85.19,79.9595 C84.446,79.2155 84.028,78.7985 83.284,78.0535 L83.284,60.0045 C84.028,59.2605 84.446,58.8435 85.19,58.0995 L92.26,58.0995 L94.165,60.0045 L94.165,78.0535 C93.421,78.7985 93.004,79.2155 92.26,79.9595" id="Fill-3" fill="#002F35"></path>
                <path d="M76.7307,30.19 L76.1477,30.19 L36.1547,30.19 L35.5717,30.19 L20.9627,51.361 L20.9627,70.78 C21.8137,71.631 24.7387,74.556 25.5897,75.408 L86.7127,75.408 C87.5637,74.556 90.4887,71.631 91.3397,70.78 L91.3397,51.361 L76.7307,30.19 Z" id="Fill-5" fill="#3A77FF"></path>
                <polygon id="Fill-7" fill="#CBDCFE" points="86.5397 48.2134 25.7627 48.2134 36.8537 31.9984 75.4487 31.9984"></polygon>
                <polygon id="Fill-9" fill="#1B3056" points="86.5397 48.2134 53.2367 48.2134 69.4497 31.9984 75.4487 31.9984"></polygon>
                <path d="M24.3781,43.564 C24.3781,41.481 22.6891,39.792 20.6061,39.792 C18.5231,39.792 16.8341,41.481 16.8341,43.564 C16.8341,45.648 18.5231,47.336 20.6061,47.336 C22.6891,47.336 24.3781,45.648 24.3781,43.564" id="Fill-11" fill="#1B3056"></path>
                <path d="M95.112,43.564 C95.112,41.481 93.423,39.792 91.34,39.792 C89.256,39.792 87.567,41.481 87.567,43.564 C87.567,45.648 89.256,47.336 91.34,47.336 C93.423,47.336 95.112,45.648 95.112,43.564" id="Fill-13" fill="#1B3056"></path>
                <path d="M58.3996,61.7671 C58.3996,60.5261 57.3926,59.5191 56.1506,59.5191 C54.9096,59.5191 53.9026,60.5261 53.9026,61.7671 C53.9026,63.0091 54.9096,64.0161 56.1506,64.0161 C57.3926,64.0161 58.3996,63.0091 58.3996,61.7671" id="Fill-15" fill="#FFCE32"></path>
                <mask id="mask-2" fill="white">
                    <use xlink:href="#path-1"></use>
                </mask>
                <g id="Clip-18"></g>
                <polygon id="Fill-17" fill="#1B3056" mask="url(#mask-2)" points="43.277 63.105 51.88 63.105 51.88 60.43 43.277 60.43"></polygon>
                <polygon id="Fill-19" fill="#1B3056" mask="url(#mask-2)" points="60.423 63.105 69.025 63.105 69.025 60.43 60.423 60.43"></polygon>
                <polygon id="Fill-20" fill="#1B3056" mask="url(#mask-2)" points="43.277 68.525 69.025 68.525 69.025 65.851 43.277 65.851"></polygon>
                <path d="M25.8449,63.8804 C25.8449,60.2024 28.8269,57.2204 32.5049,57.2204 C36.1829,57.2204 39.1649,60.2024 39.1649,63.8804 C39.1649,67.5594 36.1829,70.5414 32.5049,70.5414 C28.8269,70.5414 25.8449,67.5594 25.8449,63.8804" id="Fill-21" fill="#CBDCFE" mask="url(#mask-2)"></path>
                <path d="M28.9123,67.4732 C30.8963,69.4572 34.1133,69.4572 36.0983,67.4732 C38.0813,65.4892 38.0813,62.2722 36.0983,60.2882 L28.9123,67.4732 Z" id="Fill-22" fill="#002F35" mask="url(#mask-2)"></path>
                <path d="M73.0031,63.8804 C73.0031,60.2024 75.9851,57.2204 79.6631,57.2204 C83.3411,57.2204 86.3231,60.2024 86.3231,63.8804 C86.3231,67.5594 83.3411,70.5414 79.6631,70.5414 C75.9851,70.5414 73.0031,67.5594 73.0031,63.8804" id="Fill-23" fill="#CBDCFE" mask="url(#mask-2)"></path>
                <path d="M76.0705,67.4732 C78.0545,69.4572 81.2715,69.4572 83.2565,67.4732 C85.2395,65.4892 85.2395,62.2722 83.2565,60.2882 L76.0705,67.4732 Z" id="Fill-24" fill="#002F35" mask="url(#mask-2)"></path>
                <path d="M55.9729,98.7759 C32.3719,98.7759 13.1699,79.5759 13.1699,55.9729 C13.1699,32.3709 32.3719,13.1709 55.9729,13.1709 C79.5739,13.1709 98.7759,32.3709 98.7759,55.9729 C98.7759,79.5759 79.5739,98.7759 55.9729,98.7759 L55.9729,98.7759 Z M123.3329,114.0209 L99.8849,90.5739 C107.4129,81.0399 111.9459,69.0359 111.9459,55.9729 C111.9459,25.1089 86.8369,0.0009 55.9729,0.0009 C25.1089,0.0009 -0.0001,25.1089 -0.0001,55.9729 C-0.0001,86.8379 25.1089,111.9459 55.9729,111.9459 C69.0359,111.9459 81.0389,107.4129 90.5729,99.8849 L114.0209,123.3329 L114.0199,123.3339 L122.3889,131.7009 L131.7009,131.7009 L131.7009,122.3889 L123.3329,114.0209 Z" id="Fill-25" fill="#142E33" mask="url(#mask-2)"></path>
            </g>
        </g>
    </g>
</svg>