<?xml version="1.0" encoding="UTF-8"?>
<svg width="129px" height="147px" viewBox="0 0 129 147" version="1.1" xmlns="http://www.w3.org/2000/svg" xmlns:xlink="http://www.w3.org/1999/xlink">
    <title>Ico_1</title>
    <defs>
        <polygon id="path-1" points="0.720668611 0.657422562 61.176 0.657422562 61.176 72 0.720668611 72"></polygon>
        <polygon id="path-3" points="0.000245885868 0.657422562 60.4557314 0.657422562 60.4557314 72 0.000245885868 72"></polygon>
        <polygon id="path-5" points="0 147 128.176 147 128.176 0.25 0 0.25"></polygon>
    </defs>
    <g id="Page-1" stroke="none" stroke-width="1" fill="none" fill-rule="evenodd">
        <g id="Landing_Customer_VBerlin" transform="translate(-185.000000, -714.000000)">
            <g id="Group-25" transform="translate(185.000000, 713.000000)">
                <polygon id="Fill-1" fill="#002F34" points="40.7043 0.9996 32.1033 8.9656 32.2513 113.1886 40.8083 121.1136 87.5353 121.1136 96.0933 113.1886 96.2743 8.9656 87.6723 0.9996"></polygon>
                <polygon id="Fill-2" fill="#3A77FF" points="32.2359 102.5579 32.2519 113.1889 40.8089 121.1139 87.5349 121.1139 96.0929 113.1889 96.1119 102.5579"></polygon>
                <polygon id="Fill-3" fill="#3A77FF" points="40.7043 0.9996 32.1033 8.9656 32.1643 52.4456 87.8093 1.1256 87.6723 0.9996"></polygon>
                <g id="Group-24" transform="translate(0.000000, 0.750000)">
                    <g id="Group-6" transform="translate(67.000000, 75.000000)">
                        <mask id="mask-2" fill="white">
                            <use xlink:href="#path-1"></use>
                        </mask>
                        <g id="Clip-5"></g>
                        <path d="M7.7584,15.1926 C7.7584,15.1926 -1.9746,19.9026 1.4514,30.2626 C1.4594,30.2876 1.4684,30.3106 1.4794,30.3336 C5.4834,38.9346 18.8424,68.0366 20.4934,71.6336 C20.5964,71.8566 20.8194,72.0006 21.0644,72.0006 L57.2504,72.0006 C57.5644,72.0006 57.8304,71.7676 57.8724,71.4566 C58.3144,68.1746 60.6184,50.9486 61.1034,44.7766 C61.5134,39.5596 60.3794,32.9316 52.7634,25.5786 C49.6694,22.3516 46.4504,18.8886 43.4224,15.5776 C37.5724,9.1816 32.4314,3.3506 30.2584,0.8726 C29.8774,0.4366 29.1594,0.7076 29.1594,1.2876 L29.1594,30.0046 C29.1594,30.4866 28.6384,30.7886 28.2194,30.5486 C28.1134,30.4886 28.0284,30.3996 27.9724,30.2916 L22.1794,19.0096 C22.1024,18.8596 22.0114,18.7186 21.9074,18.5876 C20.9174,17.3306 15.6694,11.3786 7.7584,15.1926" id="Fill-4" fill="#FED6C9" mask="url(#mask-2)"></path>
                    </g>
                    <g id="Group-9" transform="translate(0.000000, 75.000000)">
                        <mask id="mask-4" fill="white">
                            <use xlink:href="#path-3"></use>
                        </mask>
                        <g id="Clip-8"></g>
                        <path d="M53.418,15.1926 C53.418,15.1926 63.151,19.9026 59.725,30.2626 C59.716,30.2876 59.707,30.3106 59.696,30.3336 C55.693,38.9346 42.334,68.0366 40.682,71.6336 C40.58,71.8566 40.357,72.0006 40.112,72.0006 L3.926,72.0006 C3.612,72.0006 3.346,71.7676 3.304,71.4566 C2.862,68.1746 0.558,50.9486 0.073,44.7766 C-0.337,39.5596 0.796,32.9316 8.413,25.5786 C11.507,22.3516 14.726,18.8886 17.754,15.5776 C23.604,9.1816 28.745,3.3506 30.917,0.8726 C31.299,0.4366 32.017,0.7076 32.017,1.2876 L32.017,30.0046 C32.017,30.4866 32.538,30.7886 32.957,30.5486 C33.062,30.4886 33.148,30.3996 33.204,30.2916 L38.997,19.0096 C39.074,18.8596 39.164,18.7186 39.269,18.5876 C40.259,17.3306 45.507,11.3786 53.418,15.1926" id="Fill-7" fill="#FED6C9" mask="url(#mask-4)"></path>
                    </g>
                    <path d="M68.8926,111.1165 C68.8926,113.8135 66.7866,116.0015 64.1886,116.0015 C61.5906,116.0015 59.4846,113.8135 59.4846,111.1165 C59.4846,108.4185 61.5906,106.2305 64.1886,106.2305 C66.7866,106.2305 68.8926,108.4185 68.8926,111.1165" id="Fill-10" fill="#002F34"></path>
                    <mask id="mask-6" fill="white">
                        <use xlink:href="#path-5"></use>
                    </mask>
                    <g id="Clip-13"></g>
                    <polygon id="Fill-12" fill="#CBDCFE" mask="url(#mask-6)" points="38.994 73.265 87.317 73.265 87.317 34.931 38.994 34.931"></polygon>
                    <polygon id="Fill-14" fill="#3A77FF" mask="url(#mask-6)" points="46.972 57.809 55.51 57.809 55.51 49.271 46.972 49.271"></polygon>
                    <polygon id="Fill-15" fill="#3A77FF" mask="url(#mask-6)" points="58.953 57.809 67.491 57.809 67.491 49.271 58.953 49.271"></polygon>
                    <polygon id="Fill-16" fill="#3A77FF" mask="url(#mask-6)" points="70.802 57.809 79.34 57.809 79.34 49.271 70.802 49.271"></polygon>
                    <polygon id="Fill-17" fill="#3A77FF" mask="url(#mask-6)" points="46.972 69.436 55.51 69.436 55.51 60.898 46.972 60.898"></polygon>
                    <polygon id="Fill-18" fill="#3A77FF" mask="url(#mask-6)" points="58.953 69.436 67.491 69.436 67.491 60.898 58.953 60.898"></polygon>
                    <polygon id="Fill-19" fill="#3A77FF" mask="url(#mask-6)" points="70.802 69.436 79.34 69.436 79.34 60.898 70.802 60.898"></polygon>
                    <line x1="38.9942" y1="43.6643" x2="87.3172" y2="43.6643" id="Stroke-20" stroke="#142E33" stroke-width="2.961" mask="url(#mask-6)"></line>
                    <path d="M51.2408,39.0793 C50.0138,39.0793 49.0198,38.0853 49.0198,36.8583 L49.0198,32.4513 C49.0198,31.2253 50.0138,30.2293 51.2408,30.2293 C52.4678,30.2293 53.4618,31.2253 53.4618,32.4513 L53.4618,36.8583 C53.4618,38.0853 52.4678,39.0793 51.2408,39.0793" id="Fill-21" fill="#FFFFFF" mask="url(#mask-6)"></path>
                    <path d="M76.7388,39.0793 C75.5118,39.0793 74.5178,38.0853 74.5178,36.8583 L74.5178,32.4513 C74.5178,31.2253 75.5118,30.2293 76.7388,30.2293 C77.9658,30.2293 78.9598,31.2253 78.9598,32.4513 L78.9598,36.8583 C78.9598,38.0853 77.9658,39.0793 76.7388,39.0793" id="Fill-22" fill="#FFFFFF" mask="url(#mask-6)"></path>
                    <polygon id="Fill-23" fill="#FFCE32" mask="url(#mask-6)" points="74.9791 86.5676 58.5851 70.1726 65.1511 63.6066 74.9791 73.4336 103.0671 45.3456 109.6341 51.9136"></polygon>
                </g>
            </g>
        </g>
    </g>
</svg>