<?xml version="1.0" encoding="UTF-8"?>
<svg width="132px" height="128px" viewBox="0 0 132 128" version="1.1" xmlns="http://www.w3.org/2000/svg" xmlns:xlink="http://www.w3.org/1999/xlink">
    <title>Ico_3</title>
    <defs>
        <polygon id="path-1" points="0.634834863 0.803 36.1269651 0.803 36.1269651 36.2942651 0.634834863 36.2942651"></polygon>
        <polygon id="path-3" points="0 0.3355 117.6587 0.3355 117.6587 81 0 81"></polygon>
        <polygon id="path-5" points="0.1198 0.5571 97.6588 0.5571 97.6588 71 0.1198 71"></polygon>
    </defs>
    <g id="Page-1" stroke="none" stroke-width="1" fill="none" fill-rule="evenodd">
        <g id="Landing_Customer_VBerlin" transform="translate(-968.000000, -721.000000)">
            <g id="Group-32" transform="translate(968.000000, 720.000000)">
                <g id="Group-3" transform="translate(95.000000, 0.197000)">
                    <mask id="mask-2" fill="white">
                        <use xlink:href="#path-1"></use>
                    </mask>
                    <g id="Clip-2"></g>
                    <path d="M35.0714,12.5337 C31.7494,3.3157 21.5844,-1.4633 12.3664,1.8577 C3.1484,5.1797 -1.6316,15.3457 1.6904,24.5627 C5.0124,33.7807 15.1774,38.5607 24.3954,35.2387 C33.6134,31.9177 38.3934,21.7517 35.0714,12.5337" id="Fill-1" fill="#3A77FF" mask="url(#mask-2)"></path>
                </g>
                <polygon id="Fill-4" fill="#FFFFFF" points="113.7428 25.4914 109.3558 13.3194 113.3358 11.8854 117.7218 24.0574"></polygon>
                <path d="M113.3702,7.4738 C112.1042,7.4738 110.8172,7.6888 109.5592,8.1428 C106.7272,9.1628 104.4622,11.2258 103.1812,13.9498 C101.9002,16.6738 101.7572,19.7348 102.7772,22.5668 C103.7982,25.3988 105.8602,27.6638 108.5852,28.9448 C111.3092,30.2258 114.3702,30.3698 117.2022,29.3488 C120.0342,28.3278 122.2992,26.2658 123.5802,23.5408 C124.8612,20.8168 125.0052,17.7568 123.9842,14.9248 C122.3302,10.3358 117.9882,7.4738 113.3702,7.4738 M113.3722,32.3278 C111.4022,32.3278 109.4402,31.8938 107.6042,31.0308 C104.3232,29.4878 101.8392,26.7588 100.6092,23.3478 C99.3802,19.9368 99.5532,16.2498 101.0962,12.9688 C102.6392,9.6878 105.3672,7.2028 108.7782,5.9738 C115.8212,3.4368 123.6142,7.1008 126.1522,14.1428 C127.3812,17.5548 127.2092,21.2408 125.6662,24.5218 C124.1222,27.8028 121.3942,30.2868 117.9832,31.5168 C116.4802,32.0588 114.9232,32.3278 113.3722,32.3278" id="Fill-6" fill="#CEDDFF"></path>
                <path d="M89.6041,38.0949 C92.5271,28.7419 87.3141,18.7919 77.9621,15.8689 C68.6101,12.9469 58.6601,18.1589 55.7371,27.5109 C52.8151,36.8639 58.0271,46.8139 67.3791,49.7369 C76.7311,52.6579 86.6821,47.4469 89.6041,38.0949" id="Fill-8" fill="#3A77FF"></path>
                <polygon id="Fill-10" fill="#FFFFFF" points="72.9205 39.6584 68.8825 38.3974 72.7425 26.0474 76.7795 27.3084"></polygon>
                <path d="M72.6774,21.5305 C67.8774,21.5305 63.4184,24.6245 61.9124,29.4405 C60.0594,35.3725 63.3774,41.7065 69.3084,43.5605 C75.2424,45.4135 81.5744,42.0955 83.4284,36.1645 C85.2814,30.2325 81.9644,23.8985 76.0324,22.0455 C74.9174,21.6965 73.7884,21.5305 72.6774,21.5305 M72.6624,46.3795 C71.3244,46.3795 69.9644,46.1795 68.6214,45.7595 C61.4764,43.5275 57.4804,35.8985 59.7134,28.7535 C61.9464,21.6085 69.5764,17.6125 76.7194,19.8445 C83.8644,22.0785 87.8614,29.7075 85.6284,36.8515 C83.8154,42.6535 78.4434,46.3795 72.6624,46.3795" id="Fill-12" fill="#CEDDFF"></path>
                <g id="Group-16" transform="translate(0.000000, 47.197000)">
                    <mask id="mask-4" fill="white">
                        <use xlink:href="#path-3"></use>
                    </mask>
                    <g id="Clip-15"></g>
                    <path d="M101.7687,81.0005 L7.2747,69.1745 C4.4337,65.5205 2.8407,63.4715 -0.0003,59.8175 L6.5337,7.6105 C10.1877,4.7695 12.2367,3.1765 15.8907,0.3355 L110.3837,12.1615 C113.2247,15.8145 114.8177,17.8635 117.6587,21.5185 L111.1247,73.7255 C107.4717,76.5655 105.4227,78.1585 101.7687,81.0005" id="Fill-14" fill="#3A77FF" mask="url(#mask-4)"></path>
                </g>
                <g id="Group-19" transform="translate(20.000000, 57.197000)">
                    <mask id="mask-6" fill="white">
                        <use xlink:href="#path-5"></use>
                    </mask>
                    <g id="Clip-18"></g>
                    <polygon id="Fill-17" fill="#1D3C81" mask="url(#mask-6)" points="97.6588 11.5181 91.1248 63.7251 81.7688 71.0001 0.1198 60.7821 77.5748 0.5571 90.3838 2.1621"></polygon>
                </g>
                <path d="M10.6251,105.4592 L101.2111,116.7962 L107.0341,70.2712 L16.4481,58.9342 L10.6251,105.4592 Z M102.4701,120.3632 L8.5261,108.6062 L7.0571,106.7182 L13.3001,56.8342 L15.1891,55.3652 L109.1331,67.1232 L110.6021,69.0122 L104.3591,118.8952 L102.4701,120.3632 Z" id="Fill-20" fill="#CEDDFF"></path>
                <path d="M76.7862,90.1125 C78.0272,80.1945 70.9942,71.1485 61.0772,69.9075 C51.1592,68.6675 42.1142,75.7005 40.8722,85.6175 C39.6312,95.5345 46.6642,104.5805 56.5822,105.8215 C66.4992,107.0625 75.5452,100.0295 76.7862,90.1125" id="Fill-22" fill="#3A77FF"></path>
                <path d="M58.8175,71.4582 C50.6715,71.4582 43.5885,77.5402 42.5515,85.8272 C41.4275,94.8032 47.8165,103.0202 56.7925,104.1432 C65.7665,105.2662 73.9845,98.8772 75.1075,89.9012 C75.6515,85.5542 74.4705,81.2542 71.7805,77.7952 C69.0905,74.3362 65.2145,72.1312 60.8665,71.5872 C60.1785,71.5002 59.4935,71.4582 58.8175,71.4582 M58.8435,107.6542 C58.0265,107.6542 57.2025,107.6042 56.3715,107.5002 C45.5445,106.1462 37.8385,96.2342 39.1935,85.4072 C40.5485,74.5802 50.4595,66.8752 61.2865,68.2292 C66.5315,68.8852 71.2075,71.5452 74.4515,75.7182 C77.6965,79.8912 79.1215,85.0772 78.4655,90.3222 C77.2135,100.3182 68.6685,107.6542 58.8435,107.6542" id="Fill-24" fill="#002F35"></path>
                <polygon id="Fill-26" fill="#FFFFFF" points="55.8292 94.8049 57.6322 80.3989 61.8292 80.9239 60.0262 95.3299"></polygon>
                <path d="M30.6554,84.3391 C30.9104,82.2981 29.4634,80.4371 27.4234,80.1821 C25.3824,79.9261 23.5214,81.3731 23.2654,83.4141 C23.0104,85.4541 24.4574,87.3161 26.4984,87.5711 C28.5384,87.8261 30.4004,86.3791 30.6554,84.3391" id="Fill-28" fill="#23E5DB"></path>
                <path d="M94.3932,92.3156 C94.6482,90.2746 93.2012,88.4136 91.1612,88.1586 C89.1202,87.9026 87.2592,89.3496 87.0032,91.3906 C86.7482,93.4316 88.1952,95.2936 90.2362,95.5476 C92.2762,95.8036 94.1382,94.3566 94.3932,92.3156" id="Fill-30" fill="#23E5DB"></path>
            </g>
        </g>
    </g>
</svg>